<?xml version="1.0" encoding="utf-8"?>
<!-- Generator: Adobe Illustrator 26.3.1, SVG Export Plug-In . SVG Version: 6.00 Build 0)  -->
<svg version="1.1" id="Ebene_1" xmlns="http://www.w3.org/2000/svg" xmlns:xlink="http://www.w3.org/1999/xlink" x="0px" y="0px"
	 viewBox="0 0 177.5 94.7" style="enable-background:new 0 0 177.5 94.7;" xml:space="preserve">
<path d="M89.5,46.1c18.6,19,27.6,35.8,47.1,35.8s35-15.6,35-35s-15.6-35.2-35-35s-26.6,14.4-44.2,34.2
	C74.4,63.7,60.8,81.9,41.4,81.9s-35-15.6-35-35s15.6-35,35-35S74,30.5,89.5,46.1z"/>
<path d="M89.5,46.1c18.6,19,27.6,35.8,47.1,35.8s35-15.6,35-35s-15.6-35.2-35-35s-26.6,14.4-44.2,34.2
	C74.4,63.7,60.8,81.9,41.4,81.9s-35-15.6-35-35s15.6-35,35-35S74,30.5,89.5,46.1z"/>
</svg>
